<svg xmlns:xlink="http://www.w3.org/1999/xlink" width="16" xmlns="http://www.w3.org/2000/svg" height="16" id="screenshot-b981267c-2f44-80f1-8004-0de4981a6691" viewBox="0 0 16 16" style="-webkit-print-color-adjust: exact;" fill="none" version="1.1"><g id="shape-b981267c-2f44-80f1-8004-0de4981a6691"><defs><clipPath class="frame-clip-def frame-clip" id="frame-clip-b981267c-2f44-80f1-8004-0de4981a6691-rumext-id-1"><rect rx="0" ry="0" x="0" y="0" width="16" height="16" transform="matrix(1.000000, 0.000000, 0.000000, 1.000000, 0.000000, 0.000000)" style="opacity: 1;"/></clipPath></defs><g clip-path="url(#frame-clip-b981267c-2f44-80f1-8004-0de4981a6691-rumext-id-1)" fill="none"><clipPath class="frame-clip-def frame-clip" id="frame-clip-b981267c-2f44-80f1-8004-0de4981a6691-rumext-id-1"><rect rx="0" ry="0" x="0" y="0" width="16" height="16" transform="matrix(1.000000, 0.000000, 0.000000, 1.000000, 0.000000, 0.000000)" style="opacity: 1;"/></clipPath><g class="fills" id="fills-b981267c-2f44-80f1-8004-0de4981a6691"><rect width="16" height="16" class="frame-background" x="0" transform="matrix(1.000000, 0.000000, 0.000000, 1.000000, 0.000000, 0.000000)" style="opacity: 1;" ry="0" rx="0" y="0"/></g><g class="frame-children" opacity="1"><g id="shape-b981267c-2f44-80f1-8004-0de4c5a93780"><g class="fills" id="fills-b981267c-2f44-80f1-8004-0de4c5a93780"><path rx="0" ry="0" d="M14.000,14.000L2.000,14.000L2.000,2.000C14.010,2.000,14.000,2.000,14.000,2.000L14.000,2.000L14.000,2.000L14.000,2.000L14.000,2.000L7.998,8.002L2.000,14.000M2.000,2.000L7.998,8.002" style="opacity: 1;"/></g><g id="strokes-b981267c-2f44-80f1-8004-0de4c5a93780" class="strokes"><g class="stroke-shape"><path rx="0" ry="0" d="M14.000,14.000L2.000,14.000L2.000,2.000C14.010,2.000,14.000,2.000,14.000,2.000L14.000,2.000L14.000,2.000L14.000,2.000L14.000,2.000L7.998,8.002L2.000,14.000M2.000,2.000L7.998,8.002" style="opacity: 1; fill: none; stroke-width: 1; stroke: rgb(0, 0, 0); stroke-opacity: 1;"/></g></g></g></g></g></g></svg>